<svg xmlns="http://www.w3.org/2000/svg" xmlns:xlink="http://www.w3.org/1999/xlink" viewBox="0 0 425.2 336.65"><defs><style>.cls-1{mask:url(#mask);}.cls-12,.cls-14,.cls-16,.cls-17,.cls-18,.cls-2,.cls-23{mix-blend-mode:multiply;}.cls-2{fill:url(#linear-gradient);}.cls-3{isolation:isolate;}.cls-4{fill:#fff;}.cls-5{opacity:0.5;fill:url(#linear-gradient-2);}.cls-6{mask:url(#mask-2);}.cls-7{fill:url(#linear-gradient-3);}.cls-8{fill:url(#linear-gradient-4);}.cls-9{fill:url(#linear-gradient-5);}.cls-10{fill:#ddd;}.cls-11{fill:#ededed;mix-blend-mode:soft-light;}.cls-12{fill:#e6e6e6;}.cls-13{fill:#bdbdbd;}.cls-14,.cls-24{fill:#b3b3b3;}.cls-15{fill:#181818;}.cls-16{fill:#999;}.cls-17{fill:#1d1d1d;}.cls-18{fill:#ccc;}.cls-19{fill:#b2b2b2;}.cls-20{fill:#c4c4c4;}.cls-21{fill:#d5d5d5;}.cls-22{fill:#717171;}.cls-25{filter:url(#luminosity-noclip-2);}.cls-26{filter:url(#luminosity-noclip);}</style><filter id="luminosity-noclip" x="23.7" y="-8384" width="165.56" height="32766" filterUnits="userSpaceOnUse" color-interpolation-filters="sRGB"><feFlood flood-color="#fff" result="bg"/><feBlend in="SourceGraphic" in2="bg"/></filter><mask id="mask" x="23.7" y="-8384" width="165.56" height="32766" maskUnits="userSpaceOnUse"><g class="cls-26"/></mask><linearGradient id="linear-gradient" x1="1695.56" y1="80.47" x2="1695.56" y2="8.01" gradientTransform="translate(-1589.08)" gradientUnits="userSpaceOnUse"><stop offset="0" stop-color="#fff"/><stop offset="0.11" stop-color="#f9f9f9"/><stop offset="0.25" stop-color="#e8e8e8"/><stop offset="0.42" stop-color="#cbcbcb"/><stop offset="0.6" stop-color="#a3a3a3"/><stop offset="0.8" stop-color="#717171"/><stop offset="1" stop-color="#333"/></linearGradient><linearGradient id="linear-gradient-2" x1="-6303.02" y1="75.97" x2="-6303.02" y2="18.14" gradientTransform="matrix(-1, 0, 0, 1, -5975.27, 0)" gradientUnits="userSpaceOnUse"><stop offset="0" stop-color="#d9d9d9"/><stop offset="0.84" stop-color="#dfdfdf"/><stop offset="1" stop-color="#e1e1e1"/></linearGradient><filter id="luminosity-noclip-2" x="23.7" y="8.01" width="165.56" height="72.46" filterUnits="userSpaceOnUse" color-interpolation-filters="sRGB"><feFlood flood-color="#fff" result="bg"/><feBlend in="SourceGraphic" in2="bg"/></filter><mask id="mask-2" x="23.7" y="8.01" width="165.56" height="72.46" maskUnits="userSpaceOnUse"><g class="cls-25"><g transform="translate(0)"><g class="cls-1"><path class="cls-2" d="M189.21,80.47q0-.64,0-1.29a20,20,0,0,0-19.62-19.71c-0.9-13.89-12.71-24.88-27.17-24.88A27.82,27.82,0,0,0,133,36.24,39.88,39.88,0,0,0,55,47.72a28.43,28.43,0,0,0-3.86-.27c-15.16,0-27.45,12-27.45,26.8a26,26,0,0,0,.76,6.22H189.21Z"/></g></g></g></mask><linearGradient id="linear-gradient-3" x1="1695.56" y1="80.47" x2="1695.56" y2="8.01" gradientTransform="translate(-1589.08)" xlink:href="#linear-gradient-2"/><linearGradient id="linear-gradient-4" x1="212.44" y1="310.92" x2="212.44" y2="97.19" gradientUnits="userSpaceOnUse"><stop offset="0.18" stop-color="#565656"/><stop offset="0.23" stop-color="#656565"/><stop offset="0.4" stop-color="#8e8e8e"/><stop offset="0.57" stop-color="#afafaf"/><stop offset="0.72" stop-color="#c6c6c6"/><stop offset="0.87" stop-color="#d4d4d4"/><stop offset="1" stop-color="#d9d9d9"/></linearGradient><linearGradient id="linear-gradient-5" x1="212.57" y1="324.62" x2="212.57" y2="149.28" gradientUnits="userSpaceOnUse"><stop offset="0" stop-color="#565656"/><stop offset="0.03" stop-color="#606060"/><stop offset="0.17" stop-color="#858585"/><stop offset="0.31" stop-color="#a3a3a3"/><stop offset="0.46" stop-color="#bbb"/><stop offset="0.61" stop-color="#ccc"/><stop offset="0.78" stop-color="#d6d6d6"/><stop offset="1" stop-color="#d9d9d9"/></linearGradient></defs><title>sin_hogares_grises</title><g class="cls-3"><g id="Capa_1" data-name="Capa 1"><rect class="cls-4" width="425.2" height="324.13"/><path class="cls-5" d="M261.72,76c0-.34,0-0.68,0-1a15.92,15.92,0,0,1,15.66-15.73A21.52,21.52,0,0,1,299,39.35a22.18,22.18,0,0,1,7.54,1.31,31.83,31.83,0,0,1,62.26,9.17,22.61,22.61,0,0,1,3.08-.21A21.65,21.65,0,0,1,393.82,71a20.84,20.84,0,0,1-.61,5H261.72Z" transform="translate(0)"/><g class="cls-6"><path class="cls-7" d="M189.21,80.47q0-.64,0-1.29a20,20,0,0,0-19.62-19.71c-0.9-13.89-12.71-24.88-27.17-24.88A27.82,27.82,0,0,0,133,36.24,39.88,39.88,0,0,0,55,47.72a28.43,28.43,0,0,0-3.86-.27c-15.16,0-27.45,12-27.45,26.8a26,26,0,0,0,.76,6.22H189.21Z" transform="translate(0)"/></g><path class="cls-8" d="M418.56,310.92V138.74h2.85l-0.14-.22h0L421,138h0l-2-3.16h0l-0.29-.46h0l-0.58-.91h-25v-22h0l0.43,0.26h0l1.49,0.92,0-.07h0l0.21-.48h0l1-2.35-0.17-.11h0l-0.79-.51h0l-1.8-1.15h0l-0.2-.12-0.86-.55h0l-0.38-.24h0l-4.11-2.62-0.2-.13h0l-0.59-.38h0l-0.19-.12-2.64-1.69L384,102h0l-1.15-.74-0.3-.19h0l-4-2.53-0.23-.15h0l-1.07-.69h0l-0.77-.49h0v0l-0.93.59-0.24.15h0l-0.9.58-0.24.15h0l-4.07,2.6-0.05,0h0l-3.94,2.52-0.29.19h0l-0.6.38h0l-4.63,3,0,0h0l-2.92,1.87h0l-0.37.24-0.51.33,0.47,1.1h0v0l0.51,1.2h0l0.21,0.49h0l0,0.1,1.65-1,0.26-.16h0v22H335l-0.55.85V121.31l2.6,1,1.67-2.51L312,108.91h0v0l-9.31,3.8v-4.41h0.67v-2.2H292.63v2.2h0.67v8.25l-8,3.25,1.67,2.51,2.6-1v11.47H278.94v2.48h0.77v1.85l-9-7.62v0h0l-19,16V129.67h3.86l-0.42-.68h0l-0.15-.24h0l-0.27-.44h0l-0.16-.25h0l-0.3-.48h0l-0.15-.24h0l-0.6-1h0l-0.74-1.19h0l-0.34-.54H224.61v-4h0.58v-2.53H213.42v2.53H214v4h-2.16l-0.57.9-0.54.87h0l-0.56.89h0l-0.15.24h0l-0.29.46h0l-0.16.26h0l-0.28.45h0l-0.15.24h0l-0.44.71h3.86V147H188.6V125h0l0.27,0.17,1.64,1,0.09-.21,0.16-.37h0l0.42-1,0.1-.24h0l0.47-1.09-0.21-.14h0l-0.67-.43h0l-1.88-1.2h0l-0.41-.26h0l-0.63-.4h0l-0.25-.16-15.69-10v0h0l-0.77.49h0l-0.38.25h0l-0.69.44h0l-0.44.29-1.22.78h0l-0.87.56L166,114.53h0l-0.38.24h0l-1.08.69h0l-1,.64-1.72,1.1h0l-0.44.28h0l-0.59.38h0l-0.38.25h0l-5.1,3.26-0.26.17h0l-1.81,1.15h0l-0.79.51h0l-0.16.11,0.54,1.28,0.11,0.27h0l0.58,1.35,1.93-1.18v22h-25l-0.52.81v-4.66h3.87l-0.44-.7h0l-0.15-.24h0l-0.28-.45h0l-0.16-.26h0l-0.29-.46h0l-0.15-.24h0l-0.56-.89h0l-0.73-1.16h0l-0.39-.61h-2.16v-4h0.57V131.6H117.31v2.53h0.57v4H90.83v-3.35l2.6,1,1.67-2.51L87.15,130v-8.25h0.67V119.6H77.09v2.19h0.67v4.41l-9.31-3.81v0h0L41.78,133.29l1.67,2.51,2.6-1v24L27.28,143h0v0l-9,7.62v-1.85H19v-2.48H6.84v2.48H7.6v10.8L3.46,163l1.89,2.83,2.94-2.52V310.9Z" transform="translate(0)"/><path class="cls-9" d="M424.53,236.81h-18.8V198.2l3.12,2.07,0.94-2.38,0.19-.48,0.87-2.24-0.27-.19h0l-1.28-.89h0l-2.93-2h0l-0.42-.29L397.69,186l-0.61-.43-1-.66-0.71-.5-2.78-1.93L391,181.4l-1.74-1.21-0.61-.42L386,177.9l-1.41-1h0l-2-1.38-0.72-.5-1.12-.78-0.61-.43-1.24-.86h0l0,0-25.39,17.64-0.41.28h0l-1,.71-0.67.46h0l-3,2.12h0l-1.08.75h0l-0.34.24,0.75,1.93h0l0.17,0.41,0.68,1.73h0l0.26,0.66,0.15,0.37,2.65-1.77,0.44-.29h0l0,0v38.61H313.28V206.38h6.26l-0.71-1.24h0l-0.25-.42h0l-0.45-.79h0l-0.26-.45-0.46-.8h0l-0.24-.42-0.9-1.56h0l-0.88-1.52-0.92-1.59h-3.5v-7h0.93v-4.45H292.82v4.45h0.93v7h-45l-0.55,1L247,200.61h0l-1,1.68h0l-0.25.42h0l-0.49.85-0.26.45h0l-0.44.76h0l-0.24.42-0.69,1.19H250v27.77L219.24,206h0l0,0-14.64,13.4V216.2h1.24v-4.37H188.52V191.68l4.21,1.79,2.7-4.41-12.87-5.72V168.83h1.09V165H166.27v3.86h1.09v7.76l-15.08-6.7v0h0l-43.15,19.18,2.71,4.41,4.2-1.79v23l-0.88-1.5H74.73V174.52l0,0h0l0.42,0.28,2.67,1.78,0.07-.18,0.34-.85,0.83-2.11v0l0.76-1.93L79,170.91l-0.59-.42h0l-4.73-3.29-0.07-.05L66.14,162l0,0-1-.67L64.68,161l-6.37-4.42-0.09-.06-6.58-4.57h0l-0.39-.27-1.46-1h0l-0.38-.26-1.5-1,0,0h0l-1.24.86-1.73,1.21-0.38.26-6.41,4.45-0.49.34-1.87,1.3h0l-0.53.37L31,161l-0.31.21-1,.67-0.33.23-6.64,4.61-0.63.43-1.39,1-0.31.22h0l-2.92,2h0l-1.28.89h0l-0.28.19,1.62,4.13h0l0.34,0.85,0,0.12L20.35,175l0.69-.46v38.63H0V324.62l425.15,0V236.81h-0.62Z" transform="translate(0)"/><rect class="cls-10" x="76.13" y="142.42" width="242.86" height="181.7"/><polygon class="cls-10" points="76.16 142.42 318.57 142.42 194.84 60.34 76.16 142.42"/><path class="cls-11" d="M224.71,100.41a154.11,154.11,0,0,0-18.35,15.89c-10.16,10.28-19.82,21.08-26.42,32.83-9.76,17.38-15.14,36.9-11.07,55.63s17.32,36.29,38.76,47.67c22,11.65,47.35,15.69,74.19,15.87,13,0.09,25.31-1.29,36.76-5.56V154.35h-0.34L230.18,95.93C228.1,97.54,226.25,99.28,224.71,100.41Z" transform="translate(0)"/><path class="cls-12" d="M287.7,291.14c-30.67,1.68-63.45-1.06-91.19-11.13-28.22-10.25-51-27-63.72-48-12.52-20.77-14.08-44.46-8.42-66.57,6-23.49,19.72-44.76,37.91-64.54,10-10.88,21.19-20.57,33.08-30.35,2-1.63,4.23-3.55,6.71-5.38l-7.23-4.8L76.16,142.42h0V324.13H319V285A115.2,115.2,0,0,1,287.7,291.14Z" transform="translate(0)"/><rect class="cls-13" x="76.13" y="306.32" width="242.86" height="17.81"/><polygon class="cls-14" points="318.99 141.12 197.22 60.34 76.76 143.66 76.76 172.45 197.22 89.13 318.99 169.91 318.99 141.12"/><polygon class="cls-15" points="197.22 75.34 338.94 169.36 367.89 159.77 197.22 46.55 33.53 159.77 61.3 169.36 197.22 75.34"/><polygon class="cls-16" points="47.82 164.34 196.89 61.23 352.3 164.34 367.29 159.37 197.22 46.55 33.88 159.52 47.82 164.34"/><path class="cls-15" d="M300.61,182.12h-75.2v142h75.2v-142ZM231.79,314.64v-123h62.43v123H231.79Z" transform="translate(0)"/><path class="cls-17" d="M300.61,182.12h-75.2v142h75.2v-142ZM227.95,318.17V188.07h68.89v130.1H227.95Z" transform="translate(0)"/><rect x="231.79" y="191.61" width="62.43" height="123.03"/><path class="cls-18" d="M243.55,264.07c1.88-18.2,7.23-38.68,18.81-50.15a45,45,0,0,1,21.81-12,61.89,61.89,0,0,1,10.05-1.53v-8.76H231.79v123h19.42C243.47,300.18,241.77,281.25,243.55,264.07Z" transform="translate(0)"/><ellipse class="cls-19" cx="284.17" cy="253.41" rx="5.68" ry="6.05"/><rect x="92.08" y="176.05" width="101.47" height="100.9"/><rect x="99.71" y="183.64" width="86.2" height="85.72"/><rect class="cls-20" x="104.5" y="189.15" width="35.17" height="34.97"/><rect class="cls-20" x="145.99" y="189.15" width="35.17" height="34.97"/><rect class="cls-20" x="104.48" y="228.88" width="35.17" height="34.97"/><rect class="cls-20" x="145.98" y="228.88" width="35.17" height="34.97"/><polygon class="cls-21" points="104.5 191.68 139.65 206.64 139.65 208.05 104.5 193.32 104.5 191.68"/><polygon class="cls-21" points="139.67 209.35 139.67 210.84 104.48 196.59 104.48 194.88 139.67 209.35"/><polygon class="cls-21" points="104.48 197.86 139.67 212.29 139.67 213.7 104.5 199.49 104.48 197.86"/><polygon class="cls-21" points="104.5 236.77 139.65 251.73 139.65 253.14 104.5 238.41 104.5 236.77"/><polygon class="cls-21" points="139.67 254.44 139.67 255.93 104.48 241.68 104.48 239.97 139.67 254.44"/><polygon class="cls-21" points="104.48 242.95 139.67 257.38 139.67 258.8 104.5 244.59 104.48 242.95"/><polygon class="cls-21" points="146 235.36 181.15 250.31 181.15 251.73 146 237 146 235.36"/><polygon class="cls-21" points="181.17 253.03 181.17 254.52 145.99 240.27 145.99 238.56 181.17 253.03"/><polygon class="cls-21" points="145.99 241.54 181.17 255.97 181.17 257.38 146 243.17 145.99 241.54"/><polygon class="cls-21" points="146 197.04 181.15 212 181.15 213.41 146 198.68 146 197.04"/><polygon class="cls-21" points="181.17 214.71 181.17 216.2 145.99 201.95 145.99 200.24 181.17 214.71"/><polygon class="cls-21" points="145.99 203.22 181.17 217.65 181.17 219.06 146 204.85 145.99 203.22"/><path class="cls-22" d="M28.68,329.43c0.34,1,2.94,7.22,14.12,7.22h0a35.83,35.83,0,0,0,4.76-.34,5.67,5.67,0,0,1,.72,0H141c3.38,0,8.06-1.72,11.4-4.19,4.42-3.27,4.68-9.18,3-13.58-2-5.07-6.42-8.75-10.6-8.75a8,8,0,0,0-3.45.81,5.62,5.62,0,0,0-1.08.7,28.17,28.17,0,0,1-5.13,4.38,14.33,14.33,0,0,1-1.44.87l-0.11.06a5.42,5.42,0,0,1-5-9.64s0.24-.14.53-0.33a20.74,20.74,0,0,0,2-1.71c0.49-.46,1-0.94,1.56-1.43,4.33-5.08,4.42-11.51.27-19.12h0s-5-8.55-12.65-8.55a12.85,12.85,0,0,0-5.21,1.2,5.42,5.42,0,0,1-7.58-4.26c-0.23-1.62-2.67-16.1-17.08-16.1H89.67c-5.68,0-18.91,1.91-19.1,19.57a5.42,5.42,0,0,1-7.26,5h0a19.84,19.84,0,0,0-5.74-.82c-6.17,0-11,2.79-14.44,8.3-0.72,1.37-3.72,8.4,5.6,15.41a5.42,5.42,0,0,1-3.43,9.75H45c-4.37,0-12.6,1.14-15.78,5.41-1.73,2.33-1.93,5.64-.59,10.1v0h0A0,0,0,0,1,28.68,329.43Z" transform="translate(0)"/><g class="cls-23"><path class="cls-24" d="M153.77,330.12h-76a4.05,4.05,0,0,0-.59,0,30.17,30.17,0,0,1-3.91.27h0c-9.17,0-11.3-5.11-11.58-5.92v0h0v0c-1.1-3.66-.94-6.37.48-8.28,2.61-3.5,9.36-4.44,12.94-4.44h0.22a4.44,4.44,0,0,0,2.82-8c-7.65-5.75-5.19-11.51-4.6-12.63,2.8-4.52,6.79-6.8,11.84-6.8A16.19,16.19,0,0,1,90,285a4.45,4.45,0,0,0,6-4.14c0.11-9.49,4.79-13.41,9.33-15-2.21-4.39-6.54-9.22-14.86-9.22H89.67c-5.68,0-18.91,1.91-19.1,19.57a5.42,5.42,0,0,1-7.26,5,19.84,19.84,0,0,0-5.74-.82c-6.17,0-11,2.79-14.44,8.3-0.72,1.37-3.72,8.4,5.6,15.41a5.42,5.42,0,0,1-3.43,9.75H45c-4.37,0-12.6,1.14-15.78,5.41-1.73,2.33-1.93,5.64-.59,10.1v0h0a0,0,0,0,1,0,0c0.34,1,2.94,7.22,14.12,7.22h0a35.83,35.83,0,0,0,4.76-.34,5.67,5.67,0,0,1,.72,0H141c3.38,0,8.06-1.72,11.4-4.19a9.31,9.31,0,0,0,1.93-2C154.16,330.09,154,330.12,153.77,330.12Z" transform="translate(0)"/></g><path class="cls-14" d="M110.27,276.75l-2.18,2.95c-0.29.45-.63,0.9-0.94,1.4s-0.64,1-1,1.55-0.56,1.12-.89,1.66a18.77,18.77,0,0,0-.68,1.76l-0.3.89-0.19.9a10.41,10.41,0,0,0-.25,1.79,11,11,0,0,0,0,1.74A9.12,9.12,0,0,0,104,293a14.38,14.38,0,0,0,.18,1.43c0.1,0.42.16,0.81,0.23,1.12,0.11,0.65.15,1,.15,1s-0.29-.25-0.76-0.73c-0.23-.24-0.52-0.54-0.82-0.91a6.62,6.62,0,0,1-.86-1.34,7.12,7.12,0,0,1-.79-1.76,9.13,9.13,0,0,1-.48-2.14,8.87,8.87,0,0,1,0-2.38c0.06-.4.08-0.82,0.18-1.22l0.35-1.18a13.14,13.14,0,0,1,1-2.22,14.48,14.48,0,0,1,1.36-1.87,11.94,11.94,0,0,1,1.51-1.5,13.21,13.21,0,0,1,1.51-1.12A10.36,10.36,0,0,1,110.27,276.75Z" transform="translate(0)"/><path class="cls-14" d="M125.7,308.28H122c-0.53,0-1.09,0-1.68.08s-1.19.08-1.81,0.15-1.24.21-1.87,0.27-1.25.24-1.82,0.49l-0.89.29-0.84.38a10.45,10.45,0,0,0-1.59.86,10.74,10.74,0,0,0-1.42,1,9.14,9.14,0,0,0-1.24,1.06c-0.35.37-.78,0.65-1,1s-0.55.61-.77,0.84c-0.46.47-.75,0.74-0.75,0.74s0-.38.14-1c0.06-.33.13-0.74,0.24-1.2a6.48,6.48,0,0,1,.57-1.49,6.94,6.94,0,0,1,.94-1.68,8.94,8.94,0,0,1,1.44-1.66,8.68,8.68,0,0,1,1.92-1.41c0.36-.19.71-0.42,1.09-0.58l1.16-.42a13.4,13.4,0,0,1,2.38-.51,14.34,14.34,0,0,1,2.31,0,11.64,11.64,0,0,1,2.1.33,13,13,0,0,1,1.8.56A10.45,10.45,0,0,1,125.7,308.28Z" transform="translate(0)"/><path class="cls-22" d="M269.72,329.43c0.34,1,2.94,7.22,14.12,7.22h0a35.78,35.78,0,0,0,4.76-.34,5.68,5.68,0,0,1,.72,0h92.74c3.38,0,8.06-1.72,11.4-4.19,4.42-3.27,4.68-9.18,3-13.58-2-5.07-6.42-8.75-10.6-8.75a8,8,0,0,0-3.44.81,5.62,5.62,0,0,0-1.08.7,28.24,28.24,0,0,1-5.13,4.38,14.33,14.33,0,0,1-1.44.87l-0.11.06a5.42,5.42,0,0,1-5-9.64s0.24-.14.53-0.33a20.75,20.75,0,0,0,2-1.71c0.5-.46,1-0.94,1.56-1.43,4.33-5.08,4.42-11.51.27-19.12h0s-5-8.55-12.65-8.55a12.86,12.86,0,0,0-5.21,1.2,5.42,5.42,0,0,1-7.58-4.26c-0.23-1.62-2.66-16.1-17.08-16.1h-0.79c-5.68,0-18.91,1.91-19.1,19.57a5.42,5.42,0,0,1-7.26,5h0a19.84,19.84,0,0,0-5.74-.82c-6.17,0-11,2.79-14.44,8.3-0.72,1.37-3.72,8.4,5.6,15.41a5.42,5.42,0,0,1-3.44,9.75h-0.27c-4.37,0-12.6,1.14-15.78,5.41-1.73,2.33-1.93,5.64-.59,10.1v0h0v0Z" transform="translate(0)"/><g class="cls-23"><path class="cls-24" d="M394.81,330.12h-76a4,4,0,0,0-.59,0,30.18,30.18,0,0,1-3.91.27h0c-9.17,0-11.3-5.11-11.58-5.92v0h0a0.07,0.07,0,0,1,0,0c-1.1-3.66-.94-6.37.48-8.28,2.61-3.5,9.36-4.44,12.94-4.44h0.23a4.44,4.44,0,0,0,2.82-8c-7.65-5.75-5.19-11.51-4.6-12.63,2.8-4.52,6.79-6.8,11.84-6.8a16.2,16.2,0,0,1,4.7.68,4.45,4.45,0,0,0,6-4.14c0.1-9.49,4.8-13.41,9.33-15-2.22-4.39-6.54-9.22-14.86-9.22h-0.79c-5.68,0-18.91,1.91-19.1,19.57a5.42,5.42,0,0,1-7.26,5,19.84,19.84,0,0,0-5.74-.82c-6.17,0-11,2.79-14.44,8.3-0.72,1.37-3.72,8.4,5.6,15.41a5.42,5.42,0,0,1-3.44,9.75h-0.27c-4.37,0-12.6,1.14-15.78,5.41-1.73,2.33-1.93,5.64-.59,10.1v0h0v0c0.34,1,2.94,7.22,14.12,7.22h0a35.78,35.78,0,0,0,4.76-.34,5.68,5.68,0,0,1,.72,0h92.74c3.38,0,8.06-1.72,11.4-4.19a9.3,9.3,0,0,0,1.93-2C395.2,330.09,395,330.12,394.81,330.12Z" transform="translate(0)"/></g><path class="cls-14" d="M351.31,276.75l-2.18,2.95c-0.29.45-.63,0.9-0.94,1.4s-0.64,1-1,1.55-0.56,1.12-.89,1.66-0.55,1.15-.68,1.76l-0.3.89-0.19.9a10.49,10.49,0,0,0-.25,1.79,10.88,10.88,0,0,0,0,1.74A9.51,9.51,0,0,0,345,293a14.09,14.09,0,0,0,.19,1.43c0.1,0.42.16,0.81,0.22,1.12,0.11,0.65.15,1,.15,1s-0.29-.25-0.76-0.73c-0.23-.24-0.52-0.54-0.82-0.91a6.61,6.61,0,0,1-.86-1.34,7.08,7.08,0,0,1-.79-1.76,9,9,0,0,1-.48-2.14,8.87,8.87,0,0,1,0-2.38,12,12,0,0,1,.18-1.22l0.35-1.18a13.28,13.28,0,0,1,1-2.22,14.55,14.55,0,0,1,1.36-1.87,11.93,11.93,0,0,1,1.51-1.5,12.72,12.72,0,0,1,1.51-1.12A10.34,10.34,0,0,1,351.31,276.75Z" transform="translate(0)"/><path class="cls-14" d="M366.73,308.28h-3.66c-0.53,0-1.09,0-1.68.08s-1.2.08-1.81,0.15-1.24.21-1.87,0.27-1.25.24-1.82,0.49l-0.89.29-0.84.38a10.27,10.27,0,0,0-1.59.86,10.6,10.6,0,0,0-1.42,1,9.09,9.09,0,0,0-1.24,1.06c-0.35.37-.78,0.65-1,1s-0.55.61-.77,0.84c-0.46.47-.75,0.74-0.75,0.74s0-.38.14-1c0.06-.33.13-0.74,0.24-1.2a6.43,6.43,0,0,1,.57-1.49,6.92,6.92,0,0,1,.94-1.68,8.83,8.83,0,0,1,1.44-1.66A8.64,8.64,0,0,1,352.6,307c0.36-.19.71-0.42,1.09-0.58l1.17-.42a13.38,13.38,0,0,1,2.38-.51,14.34,14.34,0,0,1,2.31,0,11.65,11.65,0,0,1,2.1.33,13,13,0,0,1,1.79.56A10.36,10.36,0,0,1,366.73,308.28Z" transform="translate(0)"/></g></g></svg>