<svg id="Capa_2" data-name="Capa 2" xmlns="http://www.w3.org/2000/svg" viewBox="0 0 653.03 653.03"><defs><style>.cls-1{fill:#56c3e8;}.cls-2{fill:#d3e0e2;}.cls-3,.cls-6{fill:#fff;}.cls-3{opacity:0.5;}.cls-12,.cls-4{fill:#7e898c;}.cls-4{opacity:0.48;}.cls-5{opacity:0.47;}.cls-10,.cls-7,.cls-9{fill:#1d1d1b;}.cls-8{fill:#606669;}.cls-9{font-size:30px;}.cls-10,.cls-9{font-family:Microsoft New Tai Lue;}.cls-10{font-size:18px;}.cls-11{fill:#d9e0e1;}.cls-13{fill:#5a272b;}.cls-14{fill:#582627;}.cls-15{fill:#564e50;opacity:0.41;}.cls-16{fill:#504f4f;}</style></defs><title>Contador_agua_epm_1</title><circle class="cls-1" cx="326.52" cy="326.52" r="326.52"/><circle class="cls-2" cx="326.52" cy="330.08" r="274.82"/><circle class="cls-3" cx="326.52" cy="330.08" r="247.34"/><circle class="cls-4" cx="423.59" cy="437.57" r="35.78"/><g class="cls-5"><rect class="cls-6" x="202.52" y="205.13" width="219.67" height="71"/><path class="cls-7" d="M380.67,292.33v70H162v-70H380.67m1-1H161v72H381.67v-72h0Z" transform="translate(41.02 -86.71)"/></g><polygon class="cls-8" points="253.02 204.63 253.02 276.63 241.02 276.63 241.02 271.29 248.77 271.29 248.77 266.79 242.39 266.79 242.39 262.79 248.64 262.79 248.64 254.79 242.77 254.79 242.77 245.04 248.14 245.04 248.14 238.67 242.52 238.67 242.52 230.54 247.77 230.54 247.77 225.04 242.14 225.04 242.14 222.29 242.14 217.67 247.02 217.67 247.02 204.63 253.02 204.63"/><polygon class="cls-8" points="292.77 204.63 292.77 276.63 280.77 276.63 280.77 271.29 288.52 271.29 288.52 266.79 282.14 266.79 282.14 262.79 288.39 262.79 288.39 254.79 282.52 254.79 282.52 245.04 287.89 245.04 287.89 238.67 282.27 238.67 282.27 230.54 287.52 230.54 287.52 225.04 281.89 225.04 281.89 222.29 281.89 217.67 286.77 217.67 286.77 204.63 292.77 204.63"/><polygon class="cls-8" points="332.52 204.63 332.52 276.63 320.52 276.63 320.52 271.29 328.27 271.29 328.27 266.79 321.89 266.79 321.89 262.79 328.14 262.79 328.14 254.79 322.27 254.79 322.27 245.04 327.64 245.04 327.64 238.67 322.02 238.67 322.02 230.54 327.27 230.54 327.27 225.04 321.64 225.04 321.64 222.29 321.64 217.67 326.52 217.67 326.52 204.63 332.52 204.63"/><polygon class="cls-8" points="372.27 204.63 372.27 276.63 360.27 276.63 360.27 271.29 368.02 271.29 368.02 266.79 361.64 266.79 361.64 262.79 367.89 262.79 367.89 254.79 362.02 254.79 362.02 245.04 367.39 245.04 367.39 238.67 361.77 238.67 361.77 230.54 367.02 230.54 367.02 225.04 361.39 225.04 361.39 222.29 361.39 217.67 366.27 217.67 366.27 204.63 372.27 204.63"/><text class="cls-9" transform="translate(224.05 252.75)">0</text><text class="cls-9" transform="translate(262.05 252.75)">0</text><text class="cls-9" transform="translate(301.8 252.75)">0</text><text class="cls-9" transform="translate(339.8 252.75)">0</text><text class="cls-9" transform="translate(377.8 252.75)">1</text><text class="cls-9" transform="translate(440.1 259.37)">m</text><text class="cls-10" transform="translate(465.91 248.49)">3</text><rect class="cls-8" x="202.02" y="204.63" width="20.5" height="72"/><rect class="cls-11" x="401.27" y="204.63" width="21.42" height="72"/><path class="cls-12" d="M189.25,459.25H267c0-2.37.09-17-11.75-28.25a38.66,38.66,0,0,0-26.84-10.34c-2.36-.08-17-0.34-28.41,11.34A38.73,38.73,0,0,0,189.25,459.25Z" transform="translate(41.02 -86.71)"/><path class="cls-11" d="M222.13,459.25H189.25a34.51,34.51,0,0,1,9.95-26.4l14.05,14.65,8.88-4.75V421a34.21,34.21,0,0,1,12.63,0v21.85l6.25,6.25,20.26-10.71a47.16,47.16,0,0,1,6.49,20.84H222.13Z" transform="translate(41.02 -86.71)"/><polygon class="cls-13" points="216.51 463.36 233.68 457.52 229.18 441.36 211.01 420.36 209.34 449.04 216.51 463.36"/><polygon class="cls-13" points="432.22 435.49 417.59 424.78 406.93 437.74 400.17 464.67 424.61 449.57 432.22 435.49"/><circle class="cls-4" cx="224.73" cy="452.95" r="35.66"/><polygon class="cls-14" points="448.18 341.96 460.18 357.96 474.85 348.46 488.85 323.29 460.85 330.96 448.18 341.96"/><circle class="cls-15" cx="470.77" cy="340.57" r="35.78"/><path class="cls-13" d="M302.33,554.83l-0.5,2.33a22.42,22.42,0,0,1,4.5,3.67c1.92,2,5,5.28,4.92,9.67a10.45,10.45,0,0,1-1.67,5.33c-4.1,6.64-13.93,6.52-14.83,6.5l-0.08,2-28.56-22.64,1.59-5.31Z" transform="translate(41.02 -86.71)"/><path class="cls-16" d="M308.69,534.31l-6.86,22.85a18.34,18.34,0,0,1,4.58,3.75,19.49,19.49,0,0,1,4.63,11.34,15.49,15.49,0,0,1-3.47,5.41c-4.85,4.88-11.44,4.73-12.83,4.67l-2.9,21.51a36.59,36.59,0,0,0,44.61-29.25A36,36,0,0,0,308.69,534.31Z" transform="translate(41.02 -86.71)"/><circle class="cls-4" cx="342.09" cy="482.57" r="35.78"/></svg>